<svg xmlns="http://www.w3.org/2000/svg" width="196.517" height="28.369" viewBox="0 0 196.517 28.369">
  <g id="Group_20887" data-name="Group 20887" transform="translate(-50 -296.999)">
    <g id="Group_6913" data-name="Group 6913" transform="translate(50 296.999)">
      <path id="Path_11788" data-name="Path 11788" d="M71.152,46.543a7.662,7.662,0,0,0-5.561-2.383H49.49v5.4H65.428a2.5,2.5,0,0,1,1.909.8A2.747,2.747,0,0,1,68.1,52.32a2.788,2.788,0,0,1-2.67,2.653H49.49v5.416H65.428a2.492,2.492,0,0,1,1.881.84,2.72,2.72,0,0,1,.791,1.927A2.571,2.571,0,0,1,67.309,65a2.535,2.535,0,0,1-1.881.8H49.49v5.429h16.1a8.123,8.123,0,0,0,7.961-7.908v-.434a7.637,7.637,0,0,0-2.072-5.2,8.172,8.172,0,0,0,2.072-5.631A7.535,7.535,0,0,0,71.152,46.543Z" transform="translate(-49.49 -43.684)" fill="#093358"/>
      <path id="Path_11789" data-name="Path 11789" d="M235.195,57.18H223.383V54.362a2.691,2.691,0,0,1,2.67-2.658h13.275l3.822-5.413H225.884a7.7,7.7,0,0,0-5.561,2.357,7.534,7.534,0,0,0-2.4,5.554V65.465a7.555,7.555,0,0,0,2.4,5.524,7.655,7.655,0,0,0,5.561,2.382h9.305A7.668,7.668,0,0,0,240.75,71a7.524,7.524,0,0,0,2.4-5.505v-.434a7.526,7.526,0,0,0-2.372-5.536,7.693,7.693,0,0,0-5.59-2.347Zm1.745,9.943a2.483,2.483,0,0,1-1.908.83h-8.979a2.794,2.794,0,0,1-2.67-2.653V62.593h11.644a2.6,2.6,0,0,1,1.881.778,2.5,2.5,0,0,1,.791,1.845,2.731,2.731,0,0,1-.758,1.9Z" transform="translate(-190.744 -45.47)" fill="#093358"/>
      <path id="Path_11791" data-name="Path 11791" d="M406.451,69.587a14.185,14.185,0,1,1,10.088-4.123,14.185,14.185,0,0,1-10.088,4.123Zm0-4.839,8.148-4.671V50.73l-8.148-4.674L398.3,50.73v9.348Z" transform="translate(-336.948 -41.218)" fill="#e88219"/>
    </g>
    <g id="Group_20885" data-name="Group 20885" transform="translate(139.622 304.324)">
      <path id="Path_32223" data-name="Path 32223" d="M6.314-28.319h8.62l-.862,2.856H6.7a2.4,2.4,0,0,0-2.214,1.625A5.6,5.6,0,0,0,4.015-21.5a4.265,4.265,0,0,0,1.014,3.059,2.253,2.253,0,0,0,1.674.71h8.231l-.862,2.86H6.314a5.009,5.009,0,0,1-4.35-2.3,7.705,7.705,0,0,1-1.33-4.531A7.233,7.233,0,0,1,2.1-26.342a5.163,5.163,0,0,1,4.21-1.977ZM18.72-21.6a3.509,3.509,0,0,0,2.109,3.7,7.054,7.054,0,0,0,2.536.389q3.6,0,4.35-2.467a6.033,6.033,0,0,0,.2-1.623,3.534,3.534,0,0,0-2.839-3.938,7.894,7.894,0,0,0-1.713-.169q-3.262,0-4.209,1.86a5.09,5.09,0,0,0-.438,2.258Zm12.575,0a6.237,6.237,0,0,1-3.059,5.781A9.7,9.7,0,0,1,23.2-14.6a8.292,8.292,0,0,1-5.814-1.961A6.5,6.5,0,0,1,15.34-21.6a6.369,6.369,0,0,1,2.768-5.628A8.915,8.915,0,0,1,23.2-28.613a8.587,8.587,0,0,1,6.17,2.079A6.509,6.509,0,0,1,31.3-21.587Zm11.815-6.722h3.195v13.444h-3.2l-7.032-8.857v8.857H32.883V-27.792l3.195-.862L43.109-19.8Zm16.023,0h3.194v13.444H59.133L52.1-23.732v8.857H48.907V-27.792l3.195-.862L59.134-19.8Zm8.99,8.172v2.417h9.8l-.862,2.855H64.931V-28.319h13l-.862,2.856H68.124v2.45h8.333v2.865Zm16.412-8.172h8.62l-.862,2.856H84.926a2.4,2.4,0,0,0-2.214,1.625,5.6,5.6,0,0,0-.473,2.333,4.265,4.265,0,0,0,1.014,3.059,2.253,2.253,0,0,0,1.674.71h8.231l-.861,2.86H84.537a5.009,5.009,0,0,1-4.35-2.3,7.705,7.705,0,0,1-1.335-4.53,7.233,7.233,0,0,1,1.48-4.638,5.163,5.163,0,0,1,4.2-1.977Zm8.942,2.856v-2.856h14.046l-.862,2.856h-5.02v10.588H98.432V-25.456Z" transform="translate(-0.629 28.654)" fill="#093358"/>
    </g>
  </g>
</svg>
