<svg id="Dashboard" xmlns="http://www.w3.org/2000/svg" width="24" height="24" viewBox="0 0 24 24">
  <path id="Path_32126" data-name="Path 32126" d="M0,0H24V24H0Z" fill="none"/>
  <path id="Path_32127" data-name="Path 32127" d="M6.5,11.5A4.5,4.5,0,1,1,11,7,4.5,4.5,0,0,1,6.5,11.5Zm.5,10A4.5,4.5,0,1,1,11.5,17,4.5,4.5,0,0,1,7,21.5Zm10-10A4.5,4.5,0,1,1,21.5,7,4.5,4.5,0,0,1,17,11.5Zm0,10A4.5,4.5,0,1,1,21.5,17,4.5,4.5,0,0,1,17,21.5ZM6.5,9.5A2.5,2.5,0,1,0,4,7,2.5,2.5,0,0,0,6.5,9.5Zm.5,10A2.5,2.5,0,1,0,4.5,17,2.5,2.5,0,0,0,7,19.5Zm10-10A2.5,2.5,0,1,0,14.5,7,2.5,2.5,0,0,0,17,9.5Zm0,10A2.5,2.5,0,1,0,14.5,17,2.5,2.5,0,0,0,17,19.5Z" fill="#43425d"/>
</svg>
