<svg id="Quotes" xmlns="http://www.w3.org/2000/svg" width="24" height="24" viewBox="0 0 24 24">
  <path id="Path_19762" data-name="Path 19762" d="M0,0H24V24H0Z" fill="none"/>
  <path id="Path_19763" data-name="Path 19763" d="M19.417,6.679A5.717,5.717,0,0,1,21,10.989c0,3.5-2.457,6.637-6.03,8.188L14.077,17.8a7.428,7.428,0,0,0,4.247-5.621,3.58,3.58,0,0,1-1.929.311A3.5,3.5,0,0,1,16.669,5.5a3.871,3.871,0,0,1,2.748,1.179Zm-10,0A5.717,5.717,0,0,1,11,10.989c0,3.5-2.457,6.637-6.03,8.188L4.077,17.8a7.428,7.428,0,0,0,4.247-5.621,3.58,3.58,0,0,1-1.929.311A3.5,3.5,0,0,1,6.67,5.5,3.871,3.871,0,0,1,9.418,6.679Z" fill="#43425d"/>
</svg>
