<svg id="Group_7863" data-name="Group 7863" xmlns="http://www.w3.org/2000/svg" width="16" height="16" viewBox="0 0 16 16">
  <path id="Path_32170" data-name="Path 32170" d="M0,0H16V16H0Z" fill="none"/>
  <path id="Path_32171" data-name="Path 32171" d="M12,4.667h3.333V6H14v8.667a.667.667,0,0,1-.667.667H4a.667.667,0,0,1-.667-.667V6H2V4.667H5.333v-2A.667.667,0,0,1,6,2h5.333A.667.667,0,0,1,12,2.667ZM12.667,6h-8v8h8Zm-6,2H8v4H6.667ZM9.333,8h1.333v4H9.333ZM6.667,3.333V4.667h4V3.333Z" transform="translate(-0.667 -0.667)" fill="#f46a6a"/>
</svg>
