<svg id="Group_7907" data-name="Group 7907" xmlns="http://www.w3.org/2000/svg" width="16" height="16" viewBox="0 0 16 16">
  <path id="Path_32188" data-name="Path 32188" d="M0,0H16V16H0Z" fill="none"/>
  <path id="Path_32189" data-name="Path 32189" d="M9.333,9.667V11a4,4,0,0,0-4,4H4A5.333,5.333,0,0,1,9.333,9.667Zm0-.667a4,4,0,1,1,4-4A4,4,0,0,1,9.333,9Zm0-1.333A2.667,2.667,0,1,0,6.667,5,2.666,2.666,0,0,0,9.333,7.667Zm4,7L11.374,15.7l.374-2.181L10.163,11.97l2.191-.319.979-1.985.98,1.985,2.19.319-1.585,1.545.373,2.181Z" transform="translate(-1.333 -0.333)" fill="#a4afb7"/>
</svg>
