<svg xmlns="http://www.w3.org/2000/svg" width="240.285" height="182.816" viewBox="0 0 240.285 182.816">
  <g id="undraw_order_confirmed_re_g0if" transform="translate(0)">
    <path id="Path_32190" data-name="Path 32190" d="M327.833,177.412h-.877V153.4a13.9,13.9,0,0,0-13.9-13.9H262.183a13.9,13.9,0,0,0-13.9,13.9v131.74a13.9,13.9,0,0,0,13.9,13.9h50.876a13.9,13.9,0,0,0,13.9-13.9V194.5h.877Z" transform="translate(-231.683 -139.5)" fill="#3f3d56"/>
    <path id="Path_32191" data-name="Path 32191" d="M322.811,151.783H316.17a4.931,4.931,0,0,1-4.566,6.793H282.458a4.931,4.931,0,0,1-4.566-6.793h-6.2a10.379,10.379,0,0,0-10.379,10.379V293.708a10.379,10.379,0,0,0,10.379,10.379h51.121a10.379,10.379,0,0,0,10.379-10.379h0V162.162a10.379,10.379,0,0,0-10.379-10.379Z" transform="translate(-240.875 -148.167)" fill="#fff"/>
    <path id="Path_32192" data-name="Path 32192" d="M304.349,680.089H192.186a.294.294,0,1,1,0-.589H304.349a.294.294,0,1,1,0,.589Z" transform="translate(-191.892 -520.53)" fill="#cbcbcb"/>
    <circle id="Ellipse_44" data-name="Ellipse 44" cx="24.86" cy="24.86" r="24.86" transform="translate(31.515 52.044)" fill="#2998ff"/>
    <path id="Path_395" data-name="Path 395" d="M354.8,387.629a2.578,2.578,0,0,1-1.551-.516l-.028-.021-5.842-4.469a2.6,2.6,0,1,1,3.159-4.121l3.784,2.9,8.942-11.666a2.6,2.6,0,0,1,3.639-.481h0l-.056.077.057-.077a2.6,2.6,0,0,1,.48,3.639l-10.518,13.716a2.6,2.6,0,0,1-2.065,1.013Z" transform="translate(-300.887 -301.241)" fill="#fff"/>
    <path id="Path_32193" data-name="Path 32193" d="M883.085,615.749a7.731,7.731,0,0,1,1.062-1.353c.166-.172.342-.335.522-.493a8.285,8.285,0,0,1,13.66,4.712c1.214-4.49-1.946-8.913-5.124-12.31s-6.813-7.122-6.795-11.775a8.964,8.964,0,0,1,3.188-6.612c.059-.052.118-.1.178-.154a12.091,12.091,0,0,1,8.328-2.9c5.652.3,10.587,4.1,14.014,8.607,5.517,7.25,7.934,17.427,4.072,25.68-3.4,7.259-10.642,11.569-18.036,15.034q-1.549.726-3.091,1.408l-.021.008c-.049.022-.1.044-.145.066l-.635.28.1.064.3.2-.315-.19-.1-.057c-3.632-2.179-7.314-4.484-9.822-7.886C881.828,624.542,880.782,619.483,883.085,615.749Z" transform="translate(-678.707 -453.746)" fill="#f1f1f1"/>
    <path id="Path_32194" data-name="Path 32194" d="M912.911,614.5a20.554,20.554,0,0,1,1.583,5.749,17.85,17.85,0,0,1-.215,5.3,22.867,22.867,0,0,1-4.586,9.81,32.906,32.906,0,0,1-5.941,5.776q-1.549.726-3.091,1.408l-.021.008c-.049.022-.1.044-.145.066l-.635.28.1.064.3.2-.315-.19-.1-.057a18.031,18.031,0,0,0-10.106-21.564c.166-.172.341-.335.522-.493a19.031,19.031,0,0,1,2.916,1.665,18.64,18.64,0,0,1,7.053,9.344,19.058,19.058,0,0,1,.414,10.653c.182-.119.365-.241.543-.363a33.415,33.415,0,0,0,8.85-8.381,21.272,21.272,0,0,0,3.775-9.593,19.226,19.226,0,0,0-2.182-10.865,44.528,44.528,0,0,0-6.976-9.912,50.6,50.6,0,0,0-9.355-8.043.364.364,0,0,1-.108-.49.31.31,0,0,1,.178-.154.269.269,0,0,1,.229.046c.424.283.844.568,1.26.862a51.168,51.168,0,0,1,9.351,8.542A41.2,41.2,0,0,1,912.911,614.5Z" transform="translate(-684.303 -460.703)" fill="#fff"/>
    <circle id="Ellipse_44-2" data-name="Ellipse 44" cx="5.28" cy="5.28" r="5.28" transform="translate(149.287 0.984)" fill="#f1f1f1"/>
    <circle id="Ellipse_44-3" data-name="Ellipse 44" cx="3.219" cy="3.219" r="3.219" transform="translate(216.997 75.759)" fill="#f1f1f1"/>
    <circle id="Ellipse_44-4" data-name="Ellipse 44" cx="3.219" cy="3.219" r="3.219" transform="translate(122.792 84.59)" fill="#f1f1f1"/>
    <path id="Path_32195" data-name="Path 32195" d="M625.4,759.089H737.565a.294.294,0,0,0,0-.589H625.4a.294.294,0,0,0,0,.589Z" transform="translate(-497.574 -576.273)" fill="#cbcbcb"/>
    <path id="Path_32196" data-name="Path 32196" d="M923.393,224.353a4.313,4.313,0,0,0-8.283-2.186l-9.1,10.434,2.671,7.459,9.153-12.192a4.29,4.29,0,0,0,5.561-3.515Z" transform="translate(-695.78 -195.904)" fill="#ffb7b7"/>
    <path id="Path_32197" data-name="Path 32197" d="M616.833,141.735l30.213-32.244-4.075-6.479L605.076,135.06Z" transform="translate(-426.948 -72.686)" fill="#3f3d56"/>
    <circle id="Ellipse_6" data-name="Ellipse 6" cx="10.598" cy="10.598" r="10.598" transform="translate(172.544 28.261)" fill="#2f2e41"/>
    <path id="Path_32198" data-name="Path 32198" d="M816.894,236.434a22.221,22.221,0,0,1,8.085-5.228,11.374,11.374,0,0,1,6.125-.76,5.837,5.837,0,0,1,4.545,3.829,7.227,7.227,0,0,1-.739,4.947c-.723,1.543-1.689,2.974-2.274,4.575a10.441,10.441,0,0,0,10.507,14c-2.008.269-3.858,1.213-5.82,1.715s-4.278.468-5.737-.938c-1.543-1.487-1.574-3.906-1.5-6.047l.333-9.551a12.133,12.133,0,0,0-.481-4.815,4.135,4.135,0,0,0-3.6-2.829,5.909,5.909,0,0,0-3.309,1.492,6.76,6.76,0,0,1-3.259,1.63c-1.226.109-2.627-.8-2.535-2.026Z" transform="translate(-632.9 -203.562)" fill="#2f2e41"/>
    <path id="Path_32199" data-name="Path 32199" d="M664.161,469.328a4.313,4.313,0,0,1-3.25-7.926l9.156-10.387,7.744,1.673-10.892,10.668a4.29,4.29,0,0,1-2.758,5.972Z" transform="translate(-521.272 -359.308)" fill="#ffb7b7"/>
    <path id="Path_32200" data-name="Path 32200" d="M516.33,208.319l-22.82,28.644-6.956-3.194,26.822-41.758Z" transform="translate(-343.318 -135.486)" fill="#3f3d56"/>
    <path id="Path_32201" data-name="Path 32201" d="M512.813,541.006l-5.439-.085.654,18.536h4.784Z" transform="translate(-358.009 -381.68)" fill="#ffb7b7"/>
    <path id="Path_32202" data-name="Path 32202" d="M684.911,738.081H675.49a6,6,0,0,0-6,6v.2h15.425Z" transform="translate(-528.888 -561.865)" fill="#2f2e41"/>
    <path id="Path_32203" data-name="Path 32203" d="M633.925,524.511l-5.941,3.814,11.884,14.3,4.026-2.584Z" transform="translate(-443.112 -370.1)" fill="#ffb7b7"/>
    <path id="Path_32204" data-name="Path 32204" d="M848.921,710.049l-7.928,5.09h0a6,6,0,0,0-1.808,8.3l.105.164,12.98-8.333Z" transform="translate(-647.957 -542.085)" fill="#2f2e41"/>
    <path id="Path_32205" data-name="Path 32205" d="M735.745,365.184s-13.2-43.843-17.443-44.435S707.225,332,707.225,332c-8.862,11.307-18,47.933-18,47.933s15.234.953,26.37,6.878,24.278-.3,24.278-.3Z" transform="translate(-542.816 -267.376)" fill="#3f3d56"/>
    <path id="Path_32206" data-name="Path 32206" d="M735.745,365.184s-13.2-43.843-17.443-44.435-9.341,11.37-9.341,11.37c-4.416,18.252-19.736,47.813-19.736,47.813s15.234.953,26.37,6.878,24.278-.3,24.278-.3Z" transform="translate(-542.816 -267.376)" opacity="0.1"/>
    <path id="Path_32207" data-name="Path 32207" d="M535.874,280.356v22.031l2.593,31.913,12.953,24.14-6.182,4.416-17.663-22.962-6.986-22.8-10.972,50.473-8.243-.589L507.1,297l10.863-19.7Z" transform="translate(-353.775 -195.666)" fill="#2f2e41"/>
    <path id="Path_32208" data-name="Path 32208" d="M753.255,330.809c-4.121,4.121-.294,8.537-.294,8.537l-4.71,10.6,18.547,5,6.481-28.962-4.416-4.71c-8.832-.294-8.836-.477-8.836-.477C758.478,322.314,753.255,330.809,753.255,330.809Z" transform="translate(-584.464 -267.427)" fill="#2998ff"/>
    <path id="Path_32209" data-name="Path 32209" d="M794.939,324.522a7.914,7.914,0,0,0-11.121,1.741c-4.662,6.492-8.974,16.975-3.034,30.049C790.322,377.3,798.622,388.051,802,388.05a1.343,1.343,0,0,0,.434-.068c2.077-.7,5.08-4.219,5.624-7.316a3.711,3.711,0,0,0-1.177-3.713c-3.808-3.046-10.644-12.53-12.777-25.013-1.179-6.9,1.107-13.18,3.232-17.236a7.913,7.913,0,0,0-2.29-10.106h0Z" transform="translate(-605.378 -268.962)" fill="#3f3d56"/>
    <circle id="Ellipse_7" data-name="Ellipse 7" cx="7.801" cy="7.801" r="7.801" transform="translate(169.356 38.467) rotate(-28.663)" fill="#ffb7b7"/>
    <path id="Path_32210" data-name="Path 32210" d="M765.872,258.151h11.265l.116-1.617.578,1.617h1.735l.229-3.205,1.145,3.205h3.356v-.159a8.427,8.427,0,0,0-8.417-8.417h-1.588a8.427,8.427,0,0,0-8.417,8.417Z" transform="translate(-596.899 -217.17)" fill="#2f2e41"/>
    <path id="Path_32211" data-name="Path 32211" d="M812.429,266.734l4.807-1.56V253.5h-9.08l.225.224C811.508,256.848,814.987,267.931,812.429,266.734Z" transform="translate(-626.735 -219.94)" fill="#2f2e41"/>
  </g>
</svg>
