<svg id="Group_19361" data-name="Group 19361" xmlns="http://www.w3.org/2000/svg" width="30.976" height="30.976" viewBox="0 0 30.976 30.976">
  <path id="Path_33168" data-name="Path 33168" d="M0,0H30.976V30.976H0Z" fill="none"/>
  <path id="Path_33169" data-name="Path 33169" d="M15.2,15.663l5.476,5.475-1.826,1.826L16.49,20.6v7.208H13.909V20.6l-2.359,2.362L9.723,21.138ZM15.2,2a9.036,9.036,0,0,1,8.975,7.994,7.1,7.1,0,0,1-1.23,13.919v-2.6a4.517,4.517,0,1,0-1.435-8.919,6.453,6.453,0,1,0-12.619,0,4.517,4.517,0,0,0-1.668,8.88l.232.039v2.6A7.1,7.1,0,0,1,6.224,9.994,9.035,9.035,0,0,1,15.2,2Z" transform="translate(0.289 0.581)" fill="#2593f7"/>
</svg>
